<svg width="900" height="560" viewBox="0 0 900 560" fill="none" xmlns="http://www.w3.org/2000/svg">
  <defs>
    <linearGradient id="g1" x1="30" y1="42" x2="754" y2="512" gradientUnits="userSpaceOnUse">
      <stop stop-color="#111C52"/>
      <stop offset="1" stop-color="#0A1338"/>
    </linearGradient>
  </defs>
  <rect x="28" y="28" width="844" height="504" rx="24" fill="url(#g1)" stroke="#5A72CC" stroke-opacity="0.45"/>
  <rect x="84" y="96" width="214" height="72" rx="14" fill="#0D1945" stroke="#5D76D8" stroke-opacity="0.45"/>
  <text x="106" y="138" font-size="22" fill="#CDE0FF" font-family="Arial, sans-serif">Camera Input</text>

  <rect x="340" y="96" width="214" height="72" rx="14" fill="#0D1945" stroke="#5D76D8" stroke-opacity="0.45"/>
  <text x="360" y="138" font-size="22" fill="#CDE0FF" font-family="Arial, sans-serif">Landmarks</text>

  <rect x="596" y="96" width="214" height="72" rx="14" fill="#0D1945" stroke="#5D76D8" stroke-opacity="0.45"/>
  <text x="620" y="138" font-size="22" fill="#CDE0FF" font-family="Arial, sans-serif">Recognition</text>

  <rect x="212" y="242" width="214" height="72" rx="14" fill="#0D1945" stroke="#5D76D8" stroke-opacity="0.45"/>
  <text x="256" y="284" font-size="22" fill="#CDE0FF" font-family="Arial, sans-serif">NLP</text>

  <rect x="468" y="242" width="214" height="72" rx="14" fill="#0D1945" stroke="#5D76D8" stroke-opacity="0.45"/>
  <text x="533" y="284" font-size="22" fill="#CDE0FF" font-family="Arial, sans-serif">TTS</text>

  <rect x="340" y="388" width="214" height="72" rx="14" fill="#0D1945" stroke="#5D76D8" stroke-opacity="0.45"/>
  <text x="374" y="430" font-size="22" fill="#CDE0FF" font-family="Arial, sans-serif">Output</text>

  <path d="M298 132H340" stroke="#2ED8BA" stroke-width="7" stroke-linecap="round"/>
  <path d="M554 132H596" stroke="#2ED8BA" stroke-width="7" stroke-linecap="round"/>
  <path d="M428 278H468" stroke="#2ED8BA" stroke-width="7" stroke-linecap="round"/>
  <path d="M576 314V388" stroke="#2ED8BA" stroke-width="7" stroke-linecap="round"/>
  <path d="M320 314V388" stroke="#2ED8BA" stroke-width="7" stroke-linecap="round"/>
</svg>
